{"title":"American.Horror.Story.S03E10.720P ITUNES-DL","uid":9464303,"size":738048414,"categoryP":"video","categoryS":"hd___tv_shows","magnet":"?xt=urn:btih:a6221eacf4b543ffdaa5d109e062d540e499cef8&amp;dn=American.Horror.Story.S03E10.720P+ITUNES-DL&amp;tr=udp%3A%2F%2Ftracker.openbittorrent.com%3A80&amp;tr=udp%3A%2F%2Fopen.demonii.com%3A1337&amp;tr=udp%3A%2F%2Ftracker.coppersurfer.tk%3A6969&amp;tr=udp%3A%2F%2Fexodus.desync.com%3A6969","seeders":1,"leechers":0,"uploader":"sonicx33","files":1,"time":1389422559,"description":"American.Horror.Story.S03E10.720P ITUNES-DL\n\n\nWhen Stevie Nicks visits the school, Fiona recruits her to help locate the next Supreme. Meanwhile, Madison tries to eliminate her rival and Cordelia learns the truth about Hank's true allegiances.\n\n\n\nFormat                                   : MPEG-4\nFormat profile                           : Base Media / Version 2\nCodec ID                                 : mp42\nFile size                                : 704 MiB\nDuration                                 : 48mn 53s\nOverall bit rate mode                    : Variable\nOverall bit rate                         : 2 012 Kbps\nMovie name                               : The Magical Delights of Stevie Nicks\nAlbum                                    : American Horror Story: Coven, Season 3\nPerformer                                : American Horror Story\nGenre                                    : Drama\nDescription                              : Fiona attempts to out the new Supreme with a visit from Stevie Nicks. Cordelia learns the truth\nRecorded date                            : UTC 2014-01-08 08:00:00\nEncoded date                             : UTC 2014-01-11 05:16:46\nTagged date                              : UTC 2014-01-11 05:34:04\nWriting application                      : HandBrake 0.9.9 2013051800\nCover                                    : Yes\nLongDescription                          : Fiona attempts to out the new Supreme with a visit from Stevie Nicks. Cordelia learns the truth about Hank and the Witch Hunters. Madison tries to eliminate her competition for the Supremacy.\n\nVideo\nID                                       : 1\nFormat                                   : AVC\nFormat/Info                              : Advanced Video Codec\nFormat profile                           : &lt;a class=&quot;__cf_email__&quot; href=&quot;/cdn-cgi/l/email-protection&quot; data-cfemail=&quot;abe9cad8cec7c2c5ceebe79f859b&quot;&gt;[email&amp;#160;protected]&lt;/a&gt;&lt;script cf-hash='f9e31' type=&quot;text/javascript&quot;&gt;\n/* &lt;![CDATA[ */!function(){try{var t=&quot;currentScript&quot;in document?document.currentScript:function(){for(var t=document.getElementsByTagName(&quot;script&quot;),e=t.length;e--;)if(t[e].getAttribute(&quot;cf-hash&quot;))return t[e]}();if(t&amp;&amp;t.previousSibling){var e,r,n,i,c=t.previousSibling,a=c.getAttribute(&quot;data-cfemail&quot;);if(a){for(e=&quot;&quot;,r=parseInt(a.substr(0,2),16),n=2;a.length-n;n+=2)i=parseInt(a.substr(n,2),16)^r,e+=String.fromCharCode(i);e=document.createTextNode(e),c.parentNode.replaceChild(e,c)}}}catch(u){}}();/* ]]&gt; */&lt;/script&gt;\nFormat settings, CABAC                   : No\nFormat settings, ReFrames                : 1 frame\nCodec ID                                 : avc1\nCodec ID/Info                            : Advanced Video Coding\nDuration                                 : 48mn 52s\nBit rate                                 : 1 871 Kbps\nWidth                                    : 1 280 pixels\nHeight                                   : 718 pixels\nDisplay aspect ratio                     : 16:9\nFrame rate mode                          : Variable\nFrame rate                               : 23.976 fps\nMinimum frame rate                       : 23.974 fps\nMaximum frame rate                       : 23.981 fps\nColor space                              : YUV\nChroma subsampling                       : 4:2:0\nBit depth                                : 8 bits\nScan type                                : Progressive\nBits/(Pixel*Frame)                       : 0.085\nStream size                              : 658 MiB (93%)\nWriting library                          : x264 core 130 r2273 b3065e6\nEncoding settings                        : cabac=0 / ref=1 / deblock=0:0:0 / \nEncoded date                             : UTC 2014-01-11 05:16:46\nTagged date                              : UTC 2014-01-11 05:34:04\nColor primaries                          : BT.709\nTransfer characteristics                 : BT.709\nMatrix coefficients                      : BT.709\n\nAudio\nID                                       : 2\nFormat                                   : AAC\nFormat/Info                              : Advanced Audio Codec\nFormat profile                           : LC\nCodec ID                                 : 40\nDuration                                 : 48mn 53s\nBit rate mode                            : Variable\nBit rate                                 : 128 Kbps\nMaximum bit rate                         : 281 Kbps\nChannel(s)                               : 2 channels\nChannel positions                        : Front: L R\nSampling rate                            : 44.1 KHz\nCompression mode                         : Lossy\nStream size                              : 44.8 MiB (6%)\nLanguage                                 : English\nEncoded date                             : UTC 2014-01-11 05:16:46\nTagged date                              : UTC 2014-01-11 05:34:04\n\n","torrent":{"xt":"urn:btih:a6221eacf4b543ffdaa5d109e062d540e499cef8","amp;dn":"American.Horror.Story.S03E10.720P+ITUNES-DL","amp;tr":["udp%3A%2F%2Ftracker.openbittorrent.com%3A80","udp%3A%2F%2Fopen.demonii.com%3A1337","udp%3A%2F%2Ftracker.coppersurfer.tk%3A6969","udp%3A%2F%2Fexodus.desync.com%3A6969"],"infoHash":"a6221eacf4b543ffdaa5d109e062d540e499cef8","infoHashBuffer":{"type":"Buffer","data":[166,34,30,172,244,181,67,255,218,165,209,9,224,98,213,64,228,153,206,248]},"announce":[],"urlList":[]}}